<svg id="Layer_1_1_" enable-background="new 0 0 64 64" height="512" viewBox="0 0 64 64" width="512" xmlns="http://www.w3.org/2000/svg"><path d="m55.11 14.04c1.09 1.89 1.61 3.95 1.61 5.99 0 2.34-.69 4.65-1.99 6.62 0-.01-.01-.01-.01-.01l-14.72-8.5-16.01 9.22.01-9.22 14.72-8.5c.01 0 .01-.01.02-.01 5.74-3.3 13.06-1.32 16.37 4.41z" fill="#f82f45"/><path d="m31.99 41.26-7.99 4.6-14.72-8.5s-.01 0-.01-.01c-5.73-3.32-7.7-10.65-4.38-16.39 2.22-3.85 6.25-6 10.4-6 .24 0 .47.01.71.02v.02 17z" fill="#f82f45"/><path d="m38.74 9.63c-.01 0-.01.01-.02.01l-14.72 8.5-.03 18.48-7.97-4.62v-17c0-.01 0-.01 0-.02.01-6.62 5.38-11.98 12-11.98 3.32 0 6.32 1.34 8.49 3.51.91.91 1.67 1.96 2.25 3.12z" fill="#d22435"/><path d="m48 49v.02c-.01 6.62-5.38 11.98-12 11.98-3.32 0-6.32-1.34-8.49-3.51-.91-.91-1.67-1.96-2.25-3.12.01 0 .01-.01.02-.01l14.72-8.5.03-18.48 7.97 4.62z" fill="#f82f45"/><g fill="#d22435"><path d="m9.28 37.36 14.72 8.5 16.01-9.22-.01 9.22-14.72 8.5c-.01 0-.01.01-.02.01-5.74 3.3-13.06 1.32-16.37-4.41-1.09-1.89-1.61-3.95-1.61-5.99 0-2.34.69-4.65 1.99-6.62 0 .01.01.01.01.01z"/><path d="m54.73 26.65c5.73 3.32 7.7 10.65 4.38 16.39-2.22 3.85-6.25 6-10.4 6-.24 0-.47-.01-.71-.02 0-.01 0-.01 0-.02v-17l-15.99-9.26 7.99-4.6 14.72 8.5s.01 0 .01.01z"/></g></svg>